<svg width="48px" height="48px" viewBox="0 0 455 343" fill="none" xmlns="http://www.w3.org/2000/svg">
<g id="burger">
<path id="bum" d="M454 307.588C454 342.176 456 343 233 343C-0.999847 343 1.07823e-05 342.177 1.07823e-05 307.588C1.07823e-05 273 -0.999985 273 233 273C456 273 454 273 454 307.588Z" fill="black"/>
<path id="patty" d="M454.5 207C454.5 235.5 456 231.998 233.274 231.998C10.5471 231.998 9.49997 235.5 9.49999 207C9.50001 178.5 11 183 233.273 183C456 183 454.5 178.5 454.5 207Z" fill="black"/>
<path id="bun" d="M455 95.4287C455 148.133 455 140.632 232 140.632C9 140.632 9 148.133 9 95.4287C9 42.7249 108.84 0 232 0C355.16 0 455 42.7249 455 95.4287Z" fill="black"/>
</g>
</svg>
